<?xml version="1.0" encoding="UTF-8" standalone="no"?>
<!DOCTYPE svg PUBLIC "-//W3C//DTD SVG 1.1//EN" "http://www.w3.org/Graphics/SVG/1.1/DTD/svg11.dtd">
<svg width="100%" height="100%" viewBox="0 0 32 38" version="1.1" xmlns="http://www.w3.org/2000/svg" xmlns:xlink="http://www.w3.org/1999/xlink" xml:space="preserve" xmlns:serif="http://www.serif.com/" style="fill-rule:evenodd;clip-rule:evenodd;stroke-linejoin:round;stroke-miterlimit:2;">
    <g transform="matrix(1,0,0,1,-400,0)">
        <g transform="matrix(0.0666667,0,0,0.118519,400,0)">
            <g transform="matrix(15,0,0,8.4375,-2700,-2446.88)">
                <path d="M184,290L208,290C210.667,290 212,291.333 212,294L212,316C212,318.667 210.667,320 208,320L184,320C181.333,320 180,318.667 180,316L180,294C180,291.333 181.333,290 184,290M197,323.5C197,324.2 196.767,324.783 196.3,325.25C195.8,325.75 195.2,326 194.5,326C193.8,326 193.217,325.75 192.75,325.25C192.25,324.783 192,324.2 192,323.5C192,322.8 192.25,322.2 192.75,321.7C193.217,321.233 193.8,321 194.5,321C195.2,321 195.8,321.233 196.3,321.7C196.767,322.2 197,322.8 197,323.5M202,326C202,326.567 201.8,327.033 201.4,327.4C201.033,327.8 200.567,328 200,328C199.433,328 198.95,327.8 198.55,327.4C198.183,327.033 198,326.567 198,326C198,325.433 198.183,324.95 198.55,324.55C198.95,324.183 199.433,324 200,324C200.567,324 201.033,324.183 201.4,324.55C201.8,324.95 202,325.433 202,326" style="fill:white;fill-rule:nonzero;"/>
            </g>
        </g>
        <g transform="matrix(0.0666667,0,0,0.118519,400,0)">
            <g transform="matrix(15,0,0,8.4375,-3300,-185.625)">
                <path d="M236.5,30.55C237.433,29.517 238.6,29 240,29C241.367,29 242.55,29.517 243.55,30.55L243.6,30.55C244.533,31.583 245,32.783 245,34.15C245,35.317 244.667,36.333 244,37.2L243.55,37.75L236.7,44.7L236,45C235.733,45 235.5,44.9 235.3,44.7L228.45,37.75L228,37.2C227.333,36.333 227,35.317 227,34.15C227,32.783 227.483,31.583 228.45,30.55C229.45,29.517 230.633,29 232,29C233.4,29 234.567,29.517 235.5,30.55L236,31.15L236.5,30.55" style="fill:rgb(255,0,84);fill-rule:nonzero;"/>
            </g>
        </g>
    </g>
</svg>
